<?xml version="1.0" encoding="UTF-8" standalone="no"?>
<svg
   version="1.1"
   width="1280px"
   height="203px"
   style="shape-rendering:geometricPrecision; text-rendering:geometricPrecision; image-rendering:optimizeQuality; fill-rule:evenodd; clip-rule:evenodd"
   id="svg38"
   sodipodi:docname="315949ff623122869508aabcd20d62f0.svg"
   xmlns:inkscape="http://www.inkscape.org/namespaces/inkscape"
   xmlns:sodipodi="http://sodipodi.sourceforge.net/DTD/sodipodi-0.dtd"
   xmlns="http://www.w3.org/2000/svg"
   xmlns:svg="http://www.w3.org/2000/svg">
  <defs
     id="defs42" />
  <sodipodi:namedview
     id="namedview40"
     pagecolor="#ffffff"
     bordercolor="#666666"
     borderopacity="1.0"
     inkscape:pageshadow="2"
     inkscape:pageopacity="0.0"
     inkscape:pagecheckerboard="0" />
  <g
     id="g4">
    <path
       style="opacity:0.926"
       fill="#fefefe"
       d="M -0.5,111.5 C -0.5,81.8333 -0.5,52.1667 -0.5,22.5C 1.58828,17.2432 5.25494,13.4098 10.5,11C 97.5,10.3333 184.5,10.3333 271.5,11C 276.573,12.4056 280.073,15.5723 282,20.5C 282.833,77.5029 282.667,134.503 281.5,191.5C 188.207,192.497 94.8742,192.831 1.5,192.5C 0.886348,165.346 0.219681,138.346 -0.5,111.5 Z M 132.5,28.5 C 133.5,28.5 134.5,28.5 135.5,28.5C 135.5,77.1667 135.5,125.833 135.5,174.5C 123.5,174.5 111.5,174.5 99.5,174.5C 98.7046,128.835 98.5379,83.1685 99,37.5C 109.833,32.8352 121,29.8352 132.5,28.5 Z M 147.5,28.5 C 159.779,29.7598 171.612,32.7598 183,37.5C 183.5,83.1655 183.667,128.832 183.5,174.5C 171.5,174.5 159.5,174.5 147.5,174.5C 147.5,125.833 147.5,77.1667 147.5,28.5 Z M 85.5,44.5 C 86.9026,87.6629 87.9026,130.996 88.5,174.5C 76.4954,174.667 64.4954,174.5 52.5,174C 51.9781,173.439 51.6448,172.772 51.5,172C 51.3693,140.914 51.536,109.747 52,78.5C 60.6928,64.6412 71.8594,53.3078 85.5,44.5 Z M 196.5,45.5 C 211.431,53.2637 222.931,64.5971 231,79.5C 231.5,111.165 231.667,142.832 231.5,174.5C 219.833,174.5 208.167,174.5 196.5,174.5C 196.5,131.5 196.5,88.5 196.5,45.5 Z M 28.5,59.5 C 34.0155,58.8537 37.5155,61.187 39,66.5C 39.6121,102.76 40.1121,138.76 40.5,174.5C 34.8333,174.5 29.1667,174.5 23.5,174.5C 23.0146,139.974 22.3479,105.474 21.5,71C 21.4809,65.506 23.8142,61.6726 28.5,59.5 Z M 249.5,59.5 C 255.308,58.6519 259.142,60.9852 261,66.5C 261.483,102.229 261.483,137.895 261,173.5C 255.259,174.475 249.425,174.808 243.5,174.5C 243.333,138.165 243.5,101.832 244,65.5C 245.021,62.6499 246.854,60.6499 249.5,59.5 Z"
       id="path2" />
  </g>
  <g
     id="g8">
    <path
       style="opacity:0.932"
       fill="#fefffe"
       d="M 310.5,44.5 C 316.537,44.1707 322.537,44.5041 328.5,45.5C 344.765,68.9427 361.265,92.276 378,115.5C 378.5,91.8357 378.667,68.169 378.5,44.5C 385.833,44.5 393.167,44.5 400.5,44.5C 400.5,81.8333 400.5,119.167 400.5,156.5C 394.158,156.666 387.825,156.5 381.5,156C 364.927,132.781 348.427,109.614 332,86.5C 331.5,109.831 331.333,133.164 331.5,156.5C 324.5,156.5 317.5,156.5 310.5,156.5C 310.5,119.167 310.5,81.8333 310.5,44.5 Z"
       id="path6" />
  </g>
  <g
     id="g12">
    <path
       style="opacity:0.909"
       fill="#fefffe"
       d="M 419.5,44.5 C 446.833,44.5 474.167,44.5 501.5,44.5C 501.5,51.1667 501.5,57.8333 501.5,64.5C 481.833,64.5 462.167,64.5 442.5,64.5C 442.5,73.1667 442.5,81.8333 442.5,90.5C 458.833,90.5 475.167,90.5 491.5,90.5C 491.5,97.1667 491.5,103.833 491.5,110.5C 475.167,110.5 458.833,110.5 442.5,110.5C 442.5,119.167 442.5,127.833 442.5,136.5C 463.167,136.5 483.833,136.5 504.5,136.5C 504.5,143.167 504.5,149.833 504.5,156.5C 476.167,156.5 447.833,156.5 419.5,156.5C 419.5,119.167 419.5,81.8333 419.5,44.5 Z"
       id="path10" />
  </g>
  <g
     id="g16">
    <path
       style="opacity:0.918"
       fill="#fefffe"
       d="M 512.5,44.5 C 520.833,44.5 529.167,44.5 537.5,44.5C 544.225,70.289 551.391,95.9556 559,121.5C 566.077,97.692 572.744,73.0253 579,47.5C 579.374,46.5838 579.874,45.7504 580.5,45C 588.549,44.1984 596.549,44.3651 604.5,45.5C 611.205,71.3217 618.371,96.9884 626,122.5C 631.71,99.5906 638.043,76.9239 645,54.5C 645.826,51.2072 646.326,47.8738 646.5,44.5C 654.833,44.5 663.167,44.5 671.5,44.5C 661.606,78.0936 651.106,111.427 640,144.5C 638.846,148.447 638.013,152.447 637.5,156.5C 629.804,156.831 622.138,156.497 614.5,155.5C 606.811,129.887 599.311,104.221 592,78.5C 584.606,104.964 577.106,130.631 569.5,155.5C 562.197,156.497 554.863,156.831 547.5,156.5C 536.082,119.06 524.415,81.7266 512.5,44.5 Z"
       id="path14" />
  </g>
  <g
     id="g20">
    <path
       style="opacity:0.91"
       fill="#fefffe"
       d="M 703.5,44.5 C 714.838,44.3335 726.172,44.5001 737.5,45C 745.426,47.3038 753.093,50.1371 760.5,53.5C 759.172,60.147 756.838,66.4803 753.5,72.5C 738.597,64.0399 723.097,61.7066 707,65.5C 696.881,72.1824 697.048,78.6824 707.5,85C 720.595,89.0471 733.595,93.3805 746.5,98C 765.086,107.204 769.753,121.204 760.5,140C 755.373,146.848 748.373,152.181 739.5,156C 725.833,156.667 712.167,156.667 698.5,156C 690.29,153.813 682.456,150.646 675,146.5C 674.504,144.965 674.67,143.465 675.5,142C 677.735,137.133 680.068,132.3 682.5,127.5C 684.375,126.164 685.708,126.664 686.5,129C 700.874,137.422 716.208,139.755 732.5,136C 734.833,134.5 737.167,133 739.5,131.5C 743.662,125.043 742.328,119.876 735.5,116C 724.615,112.29 713.615,108.956 702.5,106C 692.06,102.888 684.227,96.7209 679,87.5C 675.098,72.4891 679.265,60.3224 691.5,51C 695.561,48.7215 699.561,46.5548 703.5,44.5 Z"
       id="path18" />
  </g>
  <g
     id="g24">
    <path
       style="opacity:0.918"
       fill="#fefffe"
       d="M 862.5,44.5 C 873.172,44.3335 883.839,44.5002 894.5,45C 904.046,48.5673 912.546,53.7339 920,60.5C 920.651,62.235 920.485,63.9017 919.5,65.5C 915.151,69.5883 910.817,73.5883 906.5,77.5C 890.129,65.302 873.129,64.4687 855.5,75C 842.34,87.9853 840.007,102.819 848.5,119.5C 862.625,134.281 879.292,137.614 898.5,129.5C 898.5,124.833 898.5,120.167 898.5,115.5C 895.833,115.5 893.167,115.5 890.5,115.5C 890.5,109.167 890.5,102.833 890.5,96.5C 901.167,96.5 911.833,96.5 922.5,96.5C 922.833,110.516 922.499,124.516 921.5,138.5C 914.357,146.574 905.69,152.407 895.5,156C 862.748,162.465 838.748,151.132 823.5,122C 814.131,84.9532 827.131,59.1199 862.5,44.5 Z"
       id="path22" />
  </g>
  <g
     id="g28">
    <path
       style="opacity:0.917"
       fill="#fefffe"
       d="M 971.5,44.5 C 979.42,44.185 987.253,44.5183 995,45.5C 1007.34,78.5045 1020.5,111.171 1034.5,143.5C 1035.86,147.912 1037.2,152.246 1038.5,156.5C 1030.47,156.831 1022.47,156.498 1014.5,155.5C 1011.4,146.582 1008.06,137.749 1004.5,129C 989.837,128.5 975.17,128.333 960.5,128.5C 957.961,137.659 954.961,146.659 951.5,155.5C 943.528,156.498 935.528,156.831 927.5,156.5C 941.559,118.937 956.225,81.6038 971.5,44.5 Z M 982.5,71.5 C 987.158,83.8143 991.658,96.1477 996,108.5C 986.972,107.538 978.139,107.205 969.5,107.5C 974.747,95.8569 979.08,83.8569 982.5,71.5 Z"
       id="path26" />
  </g>
  <g
     id="g32">
    <path
       style="opacity:0.919"
       fill="#fefffe"
       d="M 1028.5,44.5 C 1057.5,44.5 1086.5,44.5 1115.5,44.5C 1115.5,51.1667 1115.5,57.8333 1115.5,64.5C 1104.5,64.5 1093.5,64.5 1082.5,64.5C 1082.5,95.1667 1082.5,125.833 1082.5,156.5C 1075.17,156.5 1067.83,156.5 1060.5,156.5C 1060.5,125.833 1060.5,95.1667 1060.5,64.5C 1049.83,64.5 1039.17,64.5 1028.5,64.5C 1028.5,57.8333 1028.5,51.1667 1028.5,44.5 Z"
       id="path30" />
  </g>
  <g
     id="g36">
    <path
       style="opacity:0.921"
       fill="#fefffe"
       d="M 1129.5,44.5 C 1156.83,44.5 1184.17,44.5 1211.5,44.5C 1211.5,51.1667 1211.5,57.8333 1211.5,64.5C 1191.5,64.5 1171.5,64.5 1151.5,64.5C 1151.5,73.1667 1151.5,81.8333 1151.5,90.5C 1167.83,90.5 1184.17,90.5 1200.5,90.5C 1200.6,97.0142 1200.6,103.348 1200.5,109.5C 1184.18,110.499 1167.85,110.833 1151.5,110.5C 1151.5,119.167 1151.5,127.833 1151.5,136.5C 1171.83,136.5 1192.17,136.5 1212.5,136.5C 1212.5,143.167 1212.5,149.833 1212.5,156.5C 1184.83,156.5 1157.17,156.5 1129.5,156.5C 1129.5,119.167 1129.5,81.8333 1129.5,44.5 Z"
       id="path34" />
  </g>
</svg>
